<svg width="285" height="76" viewBox="0 0 285 76" fill="none" xmlns="http://www.w3.org/2000/svg">
<rect x="0.5" y="0.5" width="284" height="75" rx="3.5" fill="url(#paint0_linear_549_6237)" fill-opacity="0.3"/>
<path fill-rule="evenodd" clip-rule="evenodd" d="M38 28.375C42.5833 28.375 46.25 29.2917 49 31.125V36.625C48.5596 36.9186 48.0957 37.1887 47.6082 37.4353C47.6195 37.6212 47.625 37.81 47.625 38C47.625 43.3157 43.3157 47.625 38 47.625C32.6843 47.625 28.375 43.3157 28.375 38C28.375 37.81 28.3805 37.6212 28.3914 37.4339C27.9043 37.1887 27.4404 36.9186 27 36.625V31.125C29.75 29.2917 33.4167 28.375 38 28.375ZM38 33.875C34.9624 33.875 32.5 36.3374 32.5 39.375C32.5 42.4125 34.9624 44.875 38 44.875C41.0375 44.875 43.5 42.4125 43.5 39.375C43.5 36.3374 41.0375 33.875 38 33.875ZM38 29.8482C34.2124 29.8482 31.1402 30.4322 28.7835 31.6003L28.375 31.8125V33.875C30.7812 32.5655 33.9896 31.9107 38 31.9107C41.7876 31.9107 44.8597 32.4947 47.2165 33.6628L47.625 33.875V31.8125C45.2188 30.503 42.0105 29.8482 38 29.8482ZM38 35.25C40.2782 35.25 42.125 37.0968 42.125 39.375C42.125 41.6532 40.2782 43.5 38 43.5C35.7218 43.5 33.875 41.6532 33.875 39.375C33.875 37.0968 35.7218 35.25 38 35.25ZM38 36.625C36.4812 36.625 35.25 37.8562 35.25 39.375C35.25 39.7781 35.3367 40.161 35.4922 40.506C36.0259 38.7704 37.3954 37.4009 39.131 36.8676C38.786 36.7117 38.4031 36.625 38 36.625Z" fill="white"/>
<rect x="18.5" y="18.5" width="39" height="39" rx="3.5" stroke="white"/>
<path d="M79.056 26.048V34H80.496V22.912H79.424C78.992 24.64 78.288 24.848 76.384 24.976V26.048H79.056ZM86.7799 34.24C89.1959 34.24 90.6039 32.896 90.6039 30.912C90.6039 29.632 89.9959 28.592 88.5239 27.952V27.92C89.6759 27.44 90.1079 26.512 90.1079 25.568C90.1079 23.856 88.7639 22.656 86.7799 22.656C84.7959 22.656 83.4519 23.856 83.4519 25.568C83.4519 26.512 83.8839 27.44 85.0359 27.92V27.952C83.5639 28.592 82.9559 29.632 82.9559 30.912C82.9559 32.896 84.3639 34.24 86.7799 34.24ZM84.3959 30.8C84.3959 29.456 85.3879 28.576 86.7799 28.576C88.1719 28.576 89.1639 29.456 89.1639 30.8C89.1639 32.16 88.1719 32.96 86.7799 32.96C85.3879 32.96 84.3959 32.16 84.3959 30.8ZM84.9079 25.648C84.9079 24.704 85.5959 23.936 86.7799 23.936C87.9639 23.936 88.6519 24.704 88.6519 25.648C88.6519 26.656 87.8519 27.328 86.7799 27.328C85.7079 27.328 84.9079 26.656 84.9079 25.648ZM95.0546 34H96.4466V32.72H95.4226C94.7186 32.72 94.4146 32.576 94.4146 31.808V27.056H96.4466V25.744H94.4146V23.408H92.9746V25.744H91.4866V27.056H92.9746V32.128C92.9746 33.696 93.8706 34 95.0546 34ZM98.0583 34H99.4983V29.312C99.4983 27.984 100.202 26.912 101.578 26.912C102.842 26.912 103.466 27.792 103.466 29.136V34H104.906V28.784C104.906 26.752 103.738 25.536 102.026 25.536C100.874 25.536 99.9783 26.08 99.5143 26.72H99.4823V22.528H98.0583V34ZM119.332 34H120.196V32.704H119.7C119.012 32.704 118.596 32.224 118.372 31.968L118.34 31.92C118.724 31.264 118.932 30.496 118.932 29.664V28.56H117.492V29.744C117.492 30.032 117.444 30.384 117.316 30.752L114.724 27.744C116.052 26.976 116.804 26.032 116.804 24.752C116.804 23.28 115.732 22.288 114.148 22.288C112.644 22.288 111.476 23.312 111.476 24.896C111.476 25.808 111.908 26.624 112.644 27.488C111.188 28.368 110.436 29.312 110.436 30.832C110.436 32.864 111.844 34.208 114.132 34.208C115.428 34.208 116.58 33.76 117.428 33.024L117.492 33.104C118.196 33.92 118.804 34 119.332 34ZM111.876 30.672C111.876 29.728 112.292 29.008 113.412 28.368L116.564 32.032C116.068 32.528 115.348 32.88 114.324 32.88C112.788 32.88 111.876 32.064 111.876 30.672ZM112.884 24.816C112.884 24.064 113.396 23.472 114.148 23.472C114.932 23.472 115.476 24.048 115.476 24.816C115.476 25.504 115.06 26.256 113.956 26.864C113.284 26.064 112.884 25.472 112.884 24.816ZM124.038 34H125.558L126.822 30.544H131.238L132.502 34H134.102L129.926 22.528H128.214L124.038 34ZM127.366 29.04L128.694 25.376C128.806 25.072 128.902 24.736 129.014 24.336H129.046C129.158 24.736 129.254 25.072 129.366 25.376L130.694 29.04H127.366ZM139.285 34H140.853V29.152H143.861C146.165 29.152 147.317 27.792 147.317 25.824C147.317 23.84 146.165 22.528 143.621 22.528H139.285V34ZM140.853 27.712V23.968H143.765C144.917 23.968 145.717 24.64 145.717 25.84C145.717 27.088 144.917 27.712 143.685 27.712H140.853ZM151.589 34H153.157V23.952H156.661V22.528H148.069V23.952H151.589V34ZM157.418 34H166.506V32.592H159.386V32.56C159.898 32 160.282 31.6 160.938 30.752L166.362 23.744V22.528H157.53V23.936H164.346V23.968C163.946 24.384 163.498 24.928 163.018 25.536L157.418 32.752V34ZM170.585 34H172.105L173.369 30.544H177.785L179.049 34H180.649L176.473 22.528H174.761L170.585 34ZM173.913 29.04L175.241 25.376C175.353 25.072 175.449 24.736 175.561 24.336H175.593C175.705 24.736 175.801 25.072 175.913 25.376L177.241 29.04H173.913ZM182.058 34H183.498V29.152C183.498 27.984 184.282 26.912 185.61 26.912C186.826 26.912 187.466 27.792 187.466 29.136V34H188.906V28.784C188.906 26.752 187.706 25.536 185.994 25.536C184.842 25.536 183.946 26.08 183.482 26.784H183.45V25.744H182.058V34ZM193.555 34H194.947V32.72H193.923C193.219 32.72 192.915 32.576 192.915 31.808V27.056H194.947V25.744H192.915V23.408H191.475V25.744H189.987V27.056H191.475V32.128C191.475 33.696 192.371 34 193.555 34ZM196.558 34H197.998V25.744H196.558V34ZM196.318 23.36C196.318 23.904 196.766 24.32 197.278 24.32C197.822 24.32 198.254 23.904 198.254 23.36C198.254 22.832 197.822 22.4 197.278 22.4C196.766 22.4 196.318 22.832 196.318 23.36ZM203.684 34.192C206.116 34.192 207.556 32.288 207.556 29.856C207.556 27.424 206.052 25.52 203.684 25.52C201.332 25.52 199.828 27.424 199.828 29.856C199.828 32.288 201.268 34.192 203.684 34.192ZM201.268 29.856C201.268 28.08 202.212 26.864 203.684 26.864C205.156 26.864 206.116 28.08 206.116 29.856C206.116 31.632 205.156 32.848 203.684 32.848C202.212 32.848 201.268 31.632 201.268 29.856ZM212.666 34.208C214.554 34.208 215.994 33.184 216.122 31.216H214.666C214.554 32.368 213.738 32.864 212.762 32.864C211.114 32.864 210.346 31.504 210.346 29.904C210.346 28.384 211.05 26.88 212.714 26.88C213.866 26.88 214.586 27.584 214.666 28.688H216.122C215.962 26.48 214.474 25.536 212.698 25.536C210.202 25.536 208.906 27.456 208.906 29.936C208.906 32.384 210.154 34.208 212.666 34.208ZM217.949 34H219.389V29.312C219.389 27.984 220.093 26.912 221.469 26.912C222.733 26.912 223.357 27.792 223.357 29.136V34H224.797V28.784C224.797 26.752 223.629 25.536 221.917 25.536C220.765 25.536 219.869 26.08 219.405 26.72H219.373V22.528H217.949V34ZM227.667 34.112C228.227 34.112 228.643 33.664 228.643 33.12C228.643 32.576 228.227 32.144 227.667 32.144C227.107 32.144 226.691 32.576 226.691 33.12C226.691 33.664 227.107 34.112 227.667 34.112ZM231.214 34.112C231.774 34.112 232.19 33.664 232.19 33.12C232.19 32.576 231.774 32.144 231.214 32.144C230.654 32.144 230.238 32.576 230.238 33.12C230.238 33.664 230.654 34.112 231.214 34.112ZM234.76 34.112C235.32 34.112 235.736 33.664 235.736 33.12C235.736 32.576 235.32 32.144 234.76 32.144C234.2 32.144 233.784 32.576 233.784 33.12C233.784 33.664 234.2 34.112 234.76 34.112Z" fill="white"/>
<path d="M77.196 54H78.47V50.061H80.914C82.786 50.061 83.722 48.956 83.722 47.357C83.722 45.745 82.786 44.679 80.719 44.679H77.196V54ZM78.47 48.891V45.849H80.836C81.772 45.849 82.422 46.395 82.422 47.37C82.422 48.384 81.772 48.891 80.771 48.891H78.47ZM87.8823 54.156C88.8053 54.156 89.5073 53.714 89.8843 53.064H89.9103V53.987H91.0413V47.279H89.8713V51.218C89.8713 52.167 89.2603 53.038 88.1943 53.038C87.1933 53.038 86.6993 52.323 86.6993 51.27V47.279H85.5293V51.556C85.5293 53.168 86.4783 54.156 87.8823 54.156ZM96.5852 54.169C98.2752 54.169 99.4452 52.713 99.4452 50.62C99.4452 48.566 98.3402 47.123 96.6112 47.123C95.8312 47.123 95.0902 47.422 94.6092 48.15H94.5832V44.679H93.4262V54H94.5442V53.155H94.5702C94.9472 53.792 95.7142 54.169 96.5852 54.169ZM94.5702 50.633C94.5702 49.086 95.3372 48.215 96.4292 48.215C97.5992 48.215 98.2752 49.255 98.2752 50.633C98.2752 52.05 97.5732 53.077 96.4032 53.077C95.3502 53.077 94.5702 52.245 94.5702 50.633ZM102.788 54H103.542V52.96H103.048C102.775 52.96 102.567 52.895 102.567 52.505V44.679H101.41V52.739C101.41 53.714 102.06 54 102.788 54ZM105.283 54H106.453V47.292H105.283V54ZM105.088 45.355C105.088 45.797 105.452 46.135 105.868 46.135C106.31 46.135 106.661 45.797 106.661 45.355C106.661 44.926 106.31 44.575 105.868 44.575C105.452 44.575 105.088 44.926 105.088 45.355ZM111.514 54.169C113.048 54.169 114.218 53.337 114.322 51.738H113.139C113.048 52.674 112.385 53.077 111.592 53.077C110.253 53.077 109.629 51.972 109.629 50.672C109.629 49.437 110.201 48.215 111.553 48.215C112.489 48.215 113.074 48.787 113.139 49.684H114.322C114.192 47.89 112.983 47.123 111.54 47.123C109.512 47.123 108.459 48.683 108.459 50.698C108.459 52.687 109.473 54.169 111.514 54.169ZM124.026 54.195C126.236 54.195 127.614 52.609 127.952 51.075H126.717C126.392 51.855 125.794 52.986 124.039 52.986C122.089 52.986 120.958 51.361 120.958 49.372C120.958 47.513 121.933 45.693 124.013 45.693C125.482 45.693 126.483 46.603 126.73 47.851H127.965C127.77 46.122 126.535 44.484 124.039 44.484C121.4 44.484 119.658 46.733 119.658 49.372C119.658 52.31 121.452 54.195 124.026 54.195ZM133.928 54.195C136.138 54.195 137.516 52.609 137.854 51.075H136.619C136.294 51.855 135.696 52.986 133.941 52.986C131.991 52.986 130.86 51.361 130.86 49.372C130.86 47.513 131.835 45.693 133.915 45.693C135.384 45.693 136.385 46.603 136.632 47.851H137.867C137.672 46.122 136.437 44.484 133.941 44.484C131.302 44.484 129.56 46.733 129.56 49.372C129.56 52.31 131.354 54.195 133.928 54.195ZM141.817 54H143.091V45.836L145.938 45.836V44.679L138.957 44.679V45.836H141.817V54ZM149.893 54H151.362L154.456 44.679H153.208L151.219 50.698C151.05 51.205 150.855 51.725 150.673 52.596H150.647C150.465 51.725 150.296 51.205 150.127 50.698L148.138 44.679H146.799L149.893 54Z" fill="white"/>
<rect x="0.5" y="0.5" width="284" height="75" rx="3.5" stroke="white"/>
<defs>
<linearGradient id="paint0_linear_549_6237" x1="0" y1="0" x2="280.314" y2="90.5116" gradientUnits="userSpaceOnUse">
<stop/>
<stop offset="1" stop-color="white" stop-opacity="0"/>
</linearGradient>
</defs>
</svg>
